<svg width="50" height="50" viewBox="0 0 50 50" fill="none" xmlns="http://www.w3.org/2000/svg">
<rect x="1" y="1" width="48" height="48" stroke="#282828" stroke-width="2"/>
<path d="M16.1934 20.5996C15.347 20.5996 14.556 20.4954 13.8203 20.2871C13.0911 20.0788 12.4727 19.8314 11.9648 19.5449L11.291 20.2285H10.4609L10.334 15.2188H11.1738C11.3626 15.694 11.6035 16.1953 11.8965 16.7227C12.1895 17.25 12.528 17.722 12.9121 18.1387C13.3092 18.5749 13.752 18.9297 14.2402 19.2031C14.735 19.4766 15.3112 19.6133 15.9688 19.6133C16.8542 19.6133 17.5312 19.3984 18 18.9688C18.4753 18.5326 18.7129 17.9857 18.7129 17.3281C18.7129 16.7878 18.5111 16.3353 18.1074 15.9707C17.7103 15.5996 17.0918 15.2806 16.252 15.0137C15.7051 14.8379 15.2005 14.6751 14.7383 14.5254C14.2826 14.3757 13.8529 14.2227 13.4492 14.0664C12.5182 13.6953 11.8249 13.1647 11.3691 12.4746C10.9199 11.7845 10.6953 11.013 10.6953 10.1602C10.6953 9.61979 10.8125 9.10221 11.0469 8.60742C11.2812 8.10612 11.623 7.6569 12.0723 7.25977C12.502 6.88867 13.0521 6.58594 13.7227 6.35156C14.3932 6.11719 15.1224 6 15.9102 6C16.6784 6 17.3978 6.10742 18.0684 6.32227C18.7389 6.5306 19.2663 6.74219 19.6504 6.95703L20.2461 6.37109H21.0957L21.1738 11.0977H20.334C20.1387 10.5898 19.9076 10.0723 19.6406 9.54492C19.3802 9.01107 19.1035 8.56836 18.8105 8.2168C18.4915 7.83919 18.1237 7.53971 17.707 7.31836C17.2904 7.09049 16.8021 6.97656 16.2422 6.97656C15.5391 6.97656 14.9629 7.17513 14.5137 7.57227C14.071 7.9694 13.8496 8.46094 13.8496 9.04688C13.8496 9.60026 14.0417 10.0527 14.4258 10.4043C14.8164 10.7559 15.4219 11.0651 16.2422 11.332C16.724 11.4948 17.2155 11.6576 17.7168 11.8203C18.2181 11.9831 18.6641 12.1393 19.0547 12.2891C19.9987 12.6536 20.7148 13.1582 21.2031 13.8027C21.6979 14.4408 21.9453 15.235 21.9453 16.1855C21.9453 16.7845 21.8053 17.3639 21.5254 17.9238C21.2454 18.4837 20.8678 18.9492 20.3926 19.3203C19.8717 19.7305 19.2695 20.0462 18.5859 20.2676C17.9023 20.4889 17.1048 20.5996 16.1934 20.5996Z" fill="black"/>
<path d="M39.8008 14.5938C39.599 14.6133 39.4199 14.6361 39.2637 14.6621C39.1074 14.6882 38.9121 14.7402 38.6777 14.8184C38.4108 14.903 38.235 15.043 38.1504 15.2383C38.0658 15.4336 38.0234 15.6387 38.0234 15.8535V17.4648C38.0234 17.7904 38.0267 18.054 38.0332 18.2559C38.0397 18.4512 38.0495 18.6953 38.0625 18.9883C37.4115 19.3789 36.4479 19.7467 35.1719 20.0918C33.9023 20.4368 32.7337 20.6094 31.666 20.6094C30.6634 20.6094 29.7227 20.4564 28.8438 20.1504C27.9648 19.8444 27.1934 19.3854 26.5293 18.7734C25.8652 18.168 25.3411 17.416 24.957 16.5176C24.5794 15.6191 24.3906 14.5905 24.3906 13.4316C24.3906 12.3509 24.5697 11.3516 24.9277 10.4336C25.2858 9.51562 25.8034 8.72461 26.4805 8.06055C27.1445 7.40299 27.9518 6.89518 28.9023 6.53711C29.8594 6.17904 30.9173 6 32.0762 6C32.8639 6 33.5931 6.09766 34.2637 6.29297C34.9342 6.48177 35.4876 6.68685 35.9238 6.9082L36.5293 6.37109H37.3789L37.4668 11.4297H36.6074C36.1126 9.91276 35.5202 8.78646 34.8301 8.05078C34.14 7.3151 33.2676 6.94727 32.2129 6.94727C30.9629 6.94727 29.9961 7.49414 29.3125 8.58789C28.6354 9.68164 28.2969 11.1888 28.2969 13.1094C28.2969 15.1471 28.6289 16.7422 29.293 17.8945C29.9635 19.0469 30.9108 19.623 32.1348 19.623C32.7077 19.623 33.2155 19.5384 33.6582 19.3691C34.1074 19.1934 34.4557 18.9915 34.7031 18.7637V15.9512C34.7031 15.7168 34.6608 15.5215 34.5762 15.3652C34.4915 15.2025 34.3223 15.0625 34.0684 14.9453C33.873 14.8542 33.6289 14.7793 33.3359 14.7207C33.043 14.6621 32.7988 14.6198 32.6035 14.5938V13.832H39.8008V14.5938Z" fill="black"/>
<path d="M20.4512 33.0723H19.6992C19.5104 32.5319 19.1751 31.959 18.6934 31.3535C18.2181 30.7415 17.7656 30.4062 17.3359 30.3477C17.1406 30.3216 16.8802 30.2988 16.5547 30.2793C16.2292 30.2598 15.9297 30.25 15.6562 30.25H13.498V35.6895H14.875C15.2656 35.6895 15.6042 35.6471 15.8906 35.5625C16.1771 35.4714 16.431 35.3118 16.6523 35.084C16.8151 34.9212 16.9714 34.651 17.1211 34.2734C17.2773 33.8893 17.3717 33.5605 17.4043 33.2871H18.1465V39.1172H17.4043C17.3783 38.8242 17.2773 38.4694 17.1016 38.0527C16.9258 37.6296 16.776 37.3496 16.6523 37.2129C16.4635 37.0046 16.2227 36.8516 15.9297 36.7539C15.6367 36.6497 15.2852 36.5977 14.875 36.5977H13.498V41.1875C13.498 41.4219 13.5404 41.6237 13.625 41.793C13.7161 41.9557 13.8854 42.0892 14.1328 42.1934C14.276 42.252 14.4714 42.3073 14.7188 42.3594C14.9727 42.4049 15.2233 42.4408 15.4707 42.4668V43.2285H8V42.4668C8.1888 42.4473 8.43945 42.4212 8.75195 42.3887C9.06445 42.3496 9.28255 42.304 9.40625 42.252C9.64062 42.1608 9.80339 42.0339 9.89453 41.8711C9.98568 41.7083 10.0312 41.5 10.0312 41.2461V31.4707C10.0312 31.2493 9.98893 31.0573 9.9043 30.8945C9.82617 30.7253 9.66016 30.5853 9.40625 30.4746C9.22396 30.3965 8.98307 30.3249 8.68359 30.2598C8.38411 30.1947 8.15625 30.1523 8 30.1328V29.3711H20.4512V33.0723Z" fill="black"/>
<path d="M41.4805 43.2285H33.9707V42.4668C34.1921 42.4473 34.4622 42.4147 34.7812 42.3691C35.1068 42.3236 35.3281 42.2747 35.4453 42.2227C35.6862 42.125 35.8587 41.9915 35.9629 41.8223C36.0671 41.653 36.1191 41.4382 36.1191 41.1777V30.8262L31.3535 43.0039H30.123C30.0645 42.7891 29.918 42.3626 29.6836 41.7246C29.4557 41.0866 29.2702 40.5755 29.127 40.1914L25.6211 30.6699V39.0977C25.6211 39.9049 25.6732 40.5202 25.7773 40.9434C25.888 41.36 26.0638 41.666 26.3047 41.8613C26.4674 41.998 26.7572 42.1283 27.1738 42.252C27.597 42.3757 27.8932 42.4473 28.0625 42.4668V43.2285H22.1055V42.4668C22.2682 42.4473 22.5319 42.4049 22.8965 42.3398C23.2676 42.2682 23.5703 42.1478 23.8047 41.9785C24.0651 41.7962 24.2409 41.4902 24.332 41.0605C24.4232 40.6243 24.4688 40.0059 24.4688 39.2051V32.3398C24.4688 31.9232 24.4167 31.5781 24.3125 31.3047C24.2083 31.0247 24.0521 30.8034 23.8438 30.6406C23.5833 30.4388 23.3164 30.3086 23.043 30.25C22.7695 30.1914 22.4928 30.1523 22.2129 30.1328V29.3711H28.5898L32.0078 38.5215L34.8887 31.0898C34.9863 30.8164 35.0807 30.4909 35.1719 30.1133C35.263 29.7357 35.3118 29.4883 35.3184 29.3711H41.4609V30.1328C41.2526 30.1458 41.0345 30.1719 40.8066 30.2109C40.5788 30.25 40.3607 30.3021 40.1523 30.3672C39.8984 30.4518 39.7292 30.5853 39.6445 30.7676C39.5664 30.9499 39.5273 31.1517 39.5273 31.373V41.1875C39.5273 41.4219 39.5664 41.6204 39.6445 41.7832C39.7292 41.9395 39.8984 42.0762 40.1523 42.1934C40.2826 42.252 40.4941 42.3073 40.7871 42.3594C41.0866 42.4115 41.3177 42.4473 41.4805 42.4668V43.2285Z" fill="black"/>
</svg>
