<?xml version="1.0" encoding="UTF-8"?>
<svg width="450px" height="200px" viewBox="0 0 450 200" version="1.1" xmlns="http://www.w3.org/2000/svg" xmlns:xlink="http://www.w3.org/1999/xlink">
    <title>Logo</title>
    <defs>
        <linearGradient x1="100%" y1="59.8765432%" x2="0%" y2="40.1234568%" id="linearGradient-1">
            <stop stop-color="#3D3D3D" offset="0%"></stop>
            <stop stop-color="#000000" offset="100%"></stop>
        </linearGradient>
        <linearGradient x1="50%" y1="0%" x2="50%" y2="100%" id="linearGradient-2">
            <stop stop-color="#D0880C" offset="0%"></stop>
            <stop stop-color="#A35005" offset="100%"></stop>
        </linearGradient>
        <linearGradient x1="50%" y1="0%" x2="50%" y2="100%" id="linearGradient-3">
            <stop stop-color="#D0880C" offset="0%"></stop>
            <stop stop-color="#A35005" offset="100%"></stop>
        </linearGradient>
        <linearGradient x1="50%" y1="0%" x2="50%" y2="100%" id="linearGradient-4">
            <stop stop-color="#3D3D3D" offset="0%"></stop>
            <stop stop-color="#000000" offset="100%"></stop>
        </linearGradient>
        <linearGradient x1="50%" y1="0%" x2="50%" y2="100%" id="linearGradient-5">
            <stop stop-color="#3D3D3D" offset="0%"></stop>
            <stop stop-color="#000000" offset="100%"></stop>
        </linearGradient>
        <linearGradient x1="50%" y1="0%" x2="50%" y2="100%" id="linearGradient-6">
            <stop stop-color="#3D3D3D" offset="0%"></stop>
            <stop stop-color="#000000" offset="100%"></stop>
        </linearGradient>
        <linearGradient x1="50%" y1="0%" x2="50%" y2="100%" id="linearGradient-7">
            <stop stop-color="#3D3D3D" offset="0%"></stop>
            <stop stop-color="#000000" offset="100%"></stop>
        </linearGradient>
        <linearGradient x1="50%" y1="0%" x2="50%" y2="100%" id="linearGradient-8">
            <stop stop-color="#3D3D3D" offset="0%"></stop>
            <stop stop-color="#000000" offset="100%"></stop>
        </linearGradient>
    </defs>
    <g id="Page-1" stroke="none" stroke-width="1" fill="none" fill-rule="evenodd">
        <g id="Logo">
            <rect id="Rectangle" stroke="url(#linearGradient-1)" stroke-width="8" x="4" y="4" width="442" height="192"></rect>
            <g id="Word" transform="translate(6.000000, 37.000000)" fill-rule="nonzero">
                <g id="Group-2-Right" transform="translate(373.350895, 9.104399)">
                    <path d="M5.17500232,45.3611075 C7.76976011,44.249193 14.812555,41.0933625 28.3321839,34.1276028 C46.073405,24.9860616 52.688281,6.97542563 52.688281,6.97542563 C52.688281,6.97542563 47.035493,13.2526804 34.5264543,19.391249 C23.8737643,24.6192632 9.24805625,30.8536996 5.13028929,32.5944764 L5.17469539,33.5447419 C5.1998586,34.1101723 5.39819992,38.8038279 5.17469539,45.3611075 L5.17500232,45.3611075 Z" id="Path" fill="url(#linearGradient-2)" transform="translate(28.909285, 26.168267) rotate(-20.000000) translate(-28.909285, -26.168267) "></path>
                    <path d="M8.78887878,44.4531246 C8.87920748,44.2423892 8.87920748,44.2423892 7.28652096,56.9754256 C10.1240174,56.4751323 19.5704788,54.5198087 31.7953244,48.9736878 C46.4918912,42.3053835 59.1312797,24.5509001 59.1312797,24.5509001 C59.1312797,24.5509001 47.7427193,32.5526379 34.0025566,37.3039658 C22.4684136,41.2913829 11.8971922,43.7604516 8.78887878,44.4531246 Z" id="Path" fill="url(#linearGradient-3)" transform="translate(33.208900, 40.763163) rotate(-27.000000) translate(-33.208900, -40.763163) "></path>
                </g>
                <g id="Group-2-Left" transform="translate(36.183956, 37.592853) scale(-1, 1) rotate(8.000000) translate(-36.183956, -37.592853) translate(4.350895, 4.104399)">
                    <path d="M5.17500232,45.3611075 C7.76976011,44.249193 14.812555,41.0933625 28.3321839,34.1276028 C46.073405,24.9860616 52.688281,6.97542563 52.688281,6.97542563 C52.688281,6.97542563 47.035493,13.2526804 34.5264543,19.391249 C23.8737643,24.6192632 9.24805625,30.8536996 5.13028929,32.5944764 L5.17469539,33.5447419 C5.1998586,34.1101723 5.39819992,38.8038279 5.17469539,45.3611075 L5.17500232,45.3611075 Z" id="Path" fill="url(#linearGradient-2)" transform="translate(28.909285, 26.168267) rotate(-20.000000) translate(-28.909285, -26.168267) "></path>
                    <path d="M8.78887878,44.4531246 C8.87920748,44.2423892 8.87920748,44.2423892 7.28652096,56.9754256 C10.1240174,56.4751323 19.5704788,54.5198087 31.7953244,48.9736878 C46.4918912,42.3053835 59.1312797,24.5509001 59.1312797,24.5509001 C59.1312797,24.5509001 47.7427193,32.5526379 34.0025566,37.3039658 C22.4684136,41.2913829 11.8971922,43.7604516 8.78887878,44.4531246 Z" id="Path" fill="url(#linearGradient-3)" transform="translate(33.208900, 40.763163) rotate(-27.000000) translate(-33.208900, -40.763163) "></path>
                </g>
                <g id="GARUDA" transform="translate(45.878294, 27.304399)">
                    <path d="M24.32,57.6 C19.3066667,57.6 15.0266667,56.76 11.48,55.08 C7.93333333,53.4 5.18666667,50.9466667 3.24,47.72 C1.29333333,44.4933333 0.24,40.5866667 0.08,36 C0.0266666667,33.7066667 0,31.2533333 0,28.64 C0,26.0266667 0.0266666667,23.5466667 0.08,21.2 C0.24,16.72 1.29333333,12.9066667 3.24,9.76 C5.18666667,6.61333333 7.96,4.2 11.56,2.52 C15.16,0.84 19.4133333,0 24.32,0 C28.2666667,0 31.7333333,0.506666667 34.72,1.52 C37.7066667,2.53333333 40.2133333,3.85333333 42.24,5.48 C44.2666667,7.10666667 45.8133333,8.88 46.88,10.8 C47.9466667,12.72 48.5066667,14.56 48.56,16.32 C48.56,16.8 48.4,17.2133333 48.08,17.56 C47.76,17.9066667 47.3333333,18.08 46.8,18.08 L36.88,18.08 C36.3466667,18.08 35.9333333,17.9733333 35.64,17.76 C35.3466667,17.5466667 35.0933333,17.2266667 34.88,16.8 C34.5066667,15.84 33.9066667,14.8666667 33.08,13.88 C32.2533333,12.8933333 31.1466667,12.0533333 29.76,11.36 C28.3733333,10.6666667 26.56,10.32 24.32,10.32 C20.96,10.32 18.3066667,11.2 16.36,12.96 C14.4133333,14.72 13.36,17.6 13.2,21.6 C13.04,26.1866667 13.04,30.8533333 13.2,35.6 C13.36,39.76 14.44,42.7466667 16.44,44.56 C18.44,46.3733333 21.12,47.28 24.48,47.28 C26.6666667,47.28 28.6266667,46.8933333 30.36,46.12 C32.0933333,45.3466667 33.4666667,44.1333333 34.48,42.48 C35.4933333,40.8266667 36,38.72 36,36.16 L36,34.16 L27.28,34.16 C26.7466667,34.16 26.2933333,33.96 25.92,33.56 C25.5466667,33.16 25.36,32.6933333 25.36,32.16 L25.36,27.04 C25.36,26.4533333 25.5466667,25.9733333 25.92,25.6 C26.2933333,25.2266667 26.7466667,25.04 27.28,25.04 L46.88,25.04 C47.4666667,25.04 47.9466667,25.2266667 48.32,25.6 C48.6933333,25.9733333 48.88,26.4533333 48.88,27.04 L48.88,35.76 C48.88,40.3466667 47.88,44.2666667 45.88,47.52 C43.88,50.7733333 41.0266667,53.2666667 37.32,55 C33.6133333,56.7333333 29.28,57.6 24.32,57.6 Z" id="Path" fill="url(#linearGradient-4)"></path>
                    <path d="M59.8433726,56.8 C59.3633726,56.8 58.9633726,56.6266667 58.6433726,56.28 C58.3233726,55.9333333 58.1633726,55.5466667 58.1633726,55.12 C58.1633726,54.8533333 58.1900393,54.6133333 58.2433726,54.4 L77.2833726,2.96 C77.4433726,2.37333333 77.7633726,1.86666667 78.2433726,1.44 C78.7233726,1.01333333 79.3900393,0.8 80.2433726,0.8 L90.4833726,0.8 C91.336706,0.8 92.0033726,1.01333333 92.4833726,1.44 C92.9633726,1.86666667 93.2833726,2.37333333 93.4433726,2.96 L112.483373,54.4 C112.536706,54.6133333 112.563373,54.8533333 112.563373,55.12 C112.563373,55.5466667 112.403373,55.9333333 112.083373,56.28 C111.763373,56.6266667 111.363373,56.8 110.883373,56.8 L102.563373,56.8 C101.763373,56.8 101.176706,56.6133333 100.803373,56.24 C100.430039,55.8666667 100.190039,55.52 100.083373,55.2 L96.6433726,46.24 L74.0833726,46.24 L70.6433726,55.2 C70.536706,55.52 70.296706,55.8666667 69.9233726,56.24 C69.5500393,56.6133333 68.9633726,56.8 68.1633726,56.8 L59.8433726,56.8 Z M77.0433726,35.92 L93.6033726,35.92 L85.3633726,12.88 L77.0433726,35.92 Z" id="Shape" fill="url(#linearGradient-5)"></path>
                    <path d="M127.142761,56.8 C126.556094,56.8 126.076094,56.6133333 125.702761,56.24 C125.329428,55.8666667 125.142761,55.3866667 125.142761,54.8 L125.142761,2.8 C125.142761,2.21333333 125.329428,1.73333333 125.702761,1.36 C126.076094,0.986666667 126.556094,0.8 127.142761,0.8 L148.342761,0.8 C155.009428,0.8 160.262761,2.33333333 164.102761,5.4 C167.942761,8.46666667 169.862761,12.88 169.862761,18.64 C169.862761,22.5333333 168.929428,25.7866667 167.062761,28.4 C165.196094,31.0133333 162.689428,32.96 159.542761,34.24 L170.822761,54.24 C170.982761,54.56 171.062761,54.8533333 171.062761,55.12 C171.062761,55.5466667 170.902761,55.9333333 170.582761,56.28 C170.262761,56.6266667 169.862761,56.8 169.382761,56.8 L160.502761,56.8 C159.542761,56.8 158.822761,56.5466667 158.342761,56.04 C157.862761,55.5333333 157.516094,55.0666667 157.302761,54.64 L147.542761,36.32 L137.862761,36.32 L137.862761,54.8 C137.862761,55.3866667 137.676094,55.8666667 137.302761,56.24 C136.929428,56.6133333 136.449428,56.8 135.862761,56.8 L127.142761,56.8 Z M137.862761,26.16 L148.102761,26.16 C151.036094,26.16 153.209428,25.4933333 154.622761,24.16 C156.036094,22.8266667 156.742761,20.96 156.742761,18.56 C156.742761,16.16 156.049428,14.2666667 154.662761,12.88 C153.276094,11.4933333 151.089428,10.8 148.102761,10.8 L137.862761,10.8 L137.862761,26.16 Z" id="Shape" fill="url(#linearGradient-6)"></path>
                    <path d="M208.299127,57.6 C203.605793,57.6 199.499127,56.8133333 195.979127,55.24 C192.459127,53.6666667 189.739127,51.24 187.819127,47.96 C185.899127,44.68 184.939127,40.5066667 184.939127,35.44 L184.939127,2.8 C184.939127,2.21333333 185.125793,1.73333333 185.499127,1.36 C185.87246,0.986666667 186.35246,0.8 186.939127,0.8 L195.659127,0.8 C196.245793,0.8 196.725793,0.986666667 197.099127,1.36 C197.47246,1.73333333 197.659127,2.21333333 197.659127,2.8 L197.659127,35.36 C197.659127,39.3066667 198.59246,42.24 200.459127,44.16 C202.325793,46.08 204.939127,47.04 208.299127,47.04 C211.605793,47.04 214.19246,46.08 216.059127,44.16 C217.925793,42.24 218.859127,39.3066667 218.859127,35.36 L218.859127,2.8 C218.859127,2.21333333 219.059127,1.73333333 219.459127,1.36 C219.859127,0.986666667 220.325793,0.8 220.859127,0.8 L229.659127,0.8 C230.19246,0.8 230.645793,0.986666667 231.019127,1.36 C231.39246,1.73333333 231.579127,2.21333333 231.579127,2.8 L231.579127,35.44 C231.579127,40.5066667 230.619127,44.68 228.699127,47.96 C226.779127,51.24 224.085793,53.6666667 220.619127,55.24 C217.15246,56.8133333 213.045793,57.6 208.299127,57.6 Z" id="Path" fill="url(#linearGradient-7)"></path>
                    <path d="M250.668466,56.8 C250.081799,56.8 249.601799,56.6133333 249.228466,56.24 C248.855133,55.8666667 248.668466,55.3866667 248.668466,54.8 L248.668466,2.8 C248.668466,2.21333333 248.855133,1.73333333 249.228466,1.36 C249.601799,0.986666667 250.081799,0.8 250.668466,0.8 L270.748466,0.8 C276.081799,0.8 280.535133,1.64 284.108466,3.32 C287.681799,5 290.415133,7.45333333 292.308466,10.68 C294.201799,13.9066667 295.201799,17.8933333 295.308466,22.64 C295.361799,24.9866667 295.388466,27.04 295.388466,28.8 C295.388466,30.56 295.361799,32.5866667 295.308466,34.88 C295.148466,39.84 294.161799,43.9466667 292.348466,47.2 C290.535133,50.4533333 287.868466,52.8666667 284.348466,54.44 C280.828466,56.0133333 276.428466,56.8 271.148466,56.8 L250.668466,56.8 Z M261.388466,46.48 L270.748466,46.48 C273.415133,46.48 275.601799,46.08 277.308466,45.28 C279.015133,44.48 280.281799,43.2133333 281.108466,41.48 C281.935133,39.7466667 282.375133,37.4933333 282.428466,34.72 C282.481799,33.1733333 282.521799,31.7866667 282.548466,30.56 C282.575133,29.3333333 282.575133,28.1066667 282.548466,26.88 C282.521799,25.6533333 282.481799,24.2933333 282.428466,22.8 C282.321799,18.8 281.295133,15.8533333 279.348466,13.96 C277.401799,12.0666667 274.401799,11.12 270.348466,11.12 L261.388466,11.12 L261.388466,46.48 Z" id="Shape" fill="url(#linearGradient-8)"></path>
                    <path d="M306.645813,56.8 C306.165813,56.8 305.765813,56.6266667 305.445813,56.28 C305.125813,55.9333333 304.965813,55.5466667 304.965813,55.12 C304.965813,54.8533333 304.99248,54.6133333 305.045813,54.4 L324.085813,2.96 C324.245813,2.37333333 324.565813,1.86666667 325.045813,1.44 C325.525813,1.01333333 326.19248,0.8 327.045813,0.8 L337.285813,0.8 C338.139147,0.8 338.805813,1.01333333 339.285813,1.44 C339.765813,1.86666667 340.085813,2.37333333 340.245813,2.96 L359.285813,54.4 C359.339147,54.6133333 359.365813,54.8533333 359.365813,55.12 C359.365813,55.5466667 359.205813,55.9333333 358.885813,56.28 C358.565813,56.6266667 358.165813,56.8 357.685813,56.8 L349.365813,56.8 C348.565813,56.8 347.979147,56.6133333 347.605813,56.24 C347.23248,55.8666667 346.99248,55.52 346.885813,55.2 L343.445813,46.24 L320.885813,46.24 L317.445813,55.2 C317.339147,55.52 317.099147,55.8666667 316.725813,56.24 C316.35248,56.6133333 315.765813,56.8 314.965813,56.8 L306.645813,56.8 Z M323.845813,35.92 L340.405813,35.92 L332.165813,12.88 L323.845813,35.92 Z" id="Shape" fill="url(#linearGradient-5)"></path>
                </g>
                <g id="Sri" transform="translate(53.804542, 0.104399)" fill="#353535">
                    <path d="M7.15603562,18 C5.59294252,18 4.28629437,17.7732794 3.23609119,17.3198381 C2.18588801,16.8663968 1.3921298,16.2753036 0.854816542,15.5465587 C0.317503287,14.8178138 0.0325644397,14.0404858 0,13.2145749 C0,13.0850202 0.0488466595,12.9676113 0.146539979,12.8623482 C0.244233298,12.757085 0.366349946,12.7044534 0.512889925,12.7044534 L3.12618621,12.7044534 C3.33785507,12.7044534 3.50067727,12.7489879 3.61465281,12.8380567 C3.72862834,12.9271255 3.83446277,13.0364372 3.93215609,13.1659919 C4.04613163,13.4412955 4.2293066,13.708502 4.48168101,13.9676113 C4.73405542,14.2267206 5.08005259,14.4412955 5.51967253,14.611336 C5.95929246,14.7813765 6.50474683,14.8663968 7.15603562,14.8663968 C8.21437991,14.8663968 9.00813813,14.6963563 9.53731027,14.3562753 C10.0664824,14.0161943 10.3310685,13.5546559 10.3310685,12.9716599 C10.3310685,12.5506073 10.1885991,12.2105263 9.90366022,11.951417 C9.61872137,11.6923077 9.17096033,11.4574899 8.56037708,11.2469636 C7.94979384,11.0364372 7.1397534,10.8097166 6.13025577,10.5668016 C4.90908928,10.3076923 3.87109777,9.97165992 3.01628123,9.55870445 C2.16146468,9.14574899 1.518317,8.61133603 1.08683817,7.95546559 C0.655359349,7.29959514 0.439619936,6.48582996 0.439619936,5.51417004 C0.439619936,4.54251012 0.708276563,3.68016194 1.24558982,2.92712551 C1.78290307,2.17408907 2.5400263,1.58299595 3.51695949,1.15384615 C4.49389268,0.724696356 5.6580714,0.510121457 7.00949564,0.510121457 C8.10040437,0.510121457 9.0651259,0.655870445 9.90366022,0.947368421 C10.7421945,1.2388664 11.44233,1.6194332 12.0040666,2.08906883 C12.5658032,2.55870445 12.9932114,3.06072874 13.2862914,3.5951417 C13.5793713,4.12955466 13.7340524,4.64777328 13.7503347,5.14979757 C13.7503347,5.27935223 13.701488,5.39676113 13.6037947,5.50202429 C13.5061014,5.60728745 13.3839847,5.65991903 13.2374447,5.65991903 L10.5020318,5.65991903 C10.3392096,5.65991903 10.1926696,5.62753036 10.0624119,5.56275304 C9.9321541,5.49797571 9.82631968,5.38461538 9.74490858,5.22267206 C9.64721526,4.80161943 9.35820586,4.43319838 8.87788037,4.11740891 C8.39755488,3.80161943 7.77475998,3.6437247 7.00949564,3.6437247 C6.21166687,3.6437247 5.58073085,3.78947368 5.11668759,4.08097166 C4.65264432,4.37246964 4.42062269,4.81781377 4.42062269,5.41700405 C4.42062269,5.80566802 4.53866878,6.13360324 4.77476097,6.40080972 C5.01085316,6.66801619 5.40976754,6.90283401 5.97150413,7.10526316 C6.53324071,7.30769231 7.27815227,7.53036437 8.2062388,7.77327935 C9.63907415,8.06477733 10.8032529,8.41295547 11.698775,8.81781377 C12.594297,9.22267206 13.253727,9.74493927 13.6770647,10.3846154 C14.1004024,11.0242915 14.3120712,11.8299595 14.3120712,12.8016194 C14.3120712,13.8866397 14.0067796,14.8178138 13.3961964,15.5951417 C12.7856131,16.3724696 11.9470788,16.9676113 10.8805934,17.3805668 C9.81410801,17.7935223 8.57258875,18 7.15603562,18 Z" id="Path"></path>
                    <path d="M17.2465617,17.757085 C17.0837395,17.757085 16.9453407,17.7004049 16.8313651,17.5870445 C16.7173896,17.4736842 16.6604018,17.3279352 16.6604018,17.1497976 L16.6604018,5.73279352 C16.6604018,5.5708502 16.7173896,5.4291498 16.8313651,5.30769231 C16.9453407,5.18623482 17.0837395,5.12550607 17.2465617,5.12550607 L19.6400481,5.12550607 C19.8028703,5.12550607 19.9453397,5.18623482 20.0674563,5.30769231 C20.189573,5.4291498 20.2506313,5.5708502 20.2506313,5.73279352 L20.2506313,6.70445344 C20.6576868,6.20242915 21.1583651,5.81376518 21.7526661,5.53846154 C22.3469671,5.26315789 23.0348909,5.12550607 23.8164374,5.12550607 L24.8666406,5.12550607 C25.0294628,5.12550607 25.1678617,5.18218623 25.2818372,5.29554656 C25.3958128,5.40890688 25.4528005,5.55465587 25.4528005,5.73279352 L25.4528005,7.82186235 C25.4528005,8 25.3958128,8.14574899 25.2818372,8.25910931 C25.1678617,8.37246964 25.0294628,8.4291498 24.8666406,8.4291498 L22.7173876,8.4291498 C22.0009699,8.4291498 21.4392334,8.62753036 21.0321779,9.0242915 C20.6251224,9.42105263 20.4215946,9.98380567 20.4215946,10.7125506 L20.4215946,17.1497976 C20.4215946,17.3279352 20.3646068,17.4736842 20.2506313,17.5870445 C20.1366558,17.7004049 19.9901158,17.757085 19.8110114,17.757085 L17.2465617,17.757085 Z" id="Path"></path>
                    <path d="M27.8738138,17.757085 C27.7109916,17.757085 27.5725927,17.7004049 27.4586172,17.5870445 C27.3446416,17.4736842 27.2876539,17.3279352 27.2876539,17.1497976 L27.2876539,5.73279352 C27.2876539,5.55465587 27.3446416,5.40890688 27.4586172,5.29554656 C27.5725927,5.18218623 27.7109916,5.12550607 27.8738138,5.12550607 L30.3161468,5.12550607 C30.4952512,5.12550607 30.6417912,5.18218623 30.7557667,5.29554656 C30.8697422,5.40890688 30.92673,5.55465587 30.92673,5.73279352 L30.92673,17.1497976 C30.92673,17.3279352 30.8697422,17.4736842 30.7557667,17.5870445 C30.6417912,17.7004049 30.4952512,17.757085 30.3161468,17.757085 L27.8738138,17.757085 Z M27.8005438,3.18218623 C27.6377216,3.18218623 27.4993227,3.12550607 27.3853472,3.01214575 C27.2713717,2.89878543 27.2143839,2.75303644 27.2143839,2.57489879 L27.2143839,0.631578947 C27.2143839,0.453441296 27.2713717,0.303643725 27.3853472,0.182186235 C27.4993227,0.0607287449 27.6377216,0 27.8005438,0 L30.3649934,0 C30.5440978,0 30.6947084,0.0607287449 30.816825,0.182186235 C30.9389417,0.303643725 31,0.453441296 31,0.631578947 L31,2.57489879 C31,2.75303644 30.9389417,2.89878543 30.816825,3.01214575 C30.6947084,3.12550607 30.5440978,3.18218623 30.3649934,3.18218623 L27.8005438,3.18218623 Z" id="Shape"></path>
                </g>
                <g id="Facility-Management" transform="translate(98.350895, 102.104399)" fill="#353535">
                    <path d="M0.600276104,17.679285 C0.424195113,17.679285 0.280128848,17.6228531 0.168077309,17.5099895 C0.0560257697,17.3971258 1.42108547e-14,17.2520154 1.42108547e-14,17.0746583 L1.42108547e-14,1.35436383 C1.42108547e-14,1.17700666 0.0560257697,1.03189625 0.168077309,0.919032597 C0.280128848,0.806168945 0.424195113,0.749737119 0.600276104,0.749737119 L11.3092018,0.749737119 C11.4852828,0.749737119 11.629349,0.806168945 11.7414006,0.919032597 C11.8534521,1.03189625 11.9094779,1.17700666 11.9094779,1.35436383 L11.9094779,3.41009464 C11.9094779,3.58745181 11.8534521,3.73256222 11.7414006,3.84542587 C11.629349,3.95828952 11.4852828,4.01472135 11.3092018,4.01472135 L3.74572289,4.01472135 L3.74572289,8.1019979 L10.8289809,8.1019979 C11.0050619,8.1019979 11.1491282,8.15842972 11.2611797,8.27129338 C11.3732312,8.38415703 11.429257,8.52926744 11.429257,8.70662461 L11.429257,10.7623554 C11.429257,10.9235892 11.3732312,11.0606379 11.2611797,11.1735016 C11.1491282,11.2863652 11.0050619,11.3427971 10.8289809,11.3427971 L3.74572289,11.3427971 L3.74572289,17.0746583 C3.74572289,17.2520154 3.68969712,17.3971258 3.57764558,17.5099895 C3.46559404,17.6228531 3.32152777,17.679285 3.14544678,17.679285 L0.600276104,17.679285 Z" id="Path"></path>
                    <path d="M17.4788619,17.9211356 C16.6304716,17.9211356 15.8701219,17.755871 15.1978127,17.4253417 C14.5255034,17.0948125 13.9892568,16.6473887 13.5890727,16.0830705 C13.1888886,15.5187522 12.9887966,14.8899404 12.9887966,14.1966351 C12.9887966,13.0518752 13.4490083,12.148966 14.3694316,11.4879075 C15.289855,10.8268489 16.5024127,10.3753943 18.0071048,10.1335436 L21.1525516,9.67402734 L21.1525516,9.23869611 C21.1525516,8.60988433 21.0084853,8.12618297 20.7203528,7.78759201 C20.4322203,7.44900105 19.9279884,7.27970557 19.207657,7.27970557 C18.6794141,7.27970557 18.255219,7.38450754 17.9350717,7.59411146 C17.6149244,7.80371539 17.3668103,8.07781283 17.1907293,8.41640379 C17.0626704,8.62600771 16.8785858,8.73080967 16.6384753,8.73080967 L14.3574261,8.73080967 C14.1813451,8.73080967 14.0452825,8.67840869 13.9492384,8.57360673 C13.8531942,8.46880477 13.8131758,8.34384858 13.8291831,8.19873817 C13.8291831,7.92464073 13.933231,7.60217315 14.1413267,7.23133544 C14.3494224,6.86049772 14.6695697,6.49369085 15.1017685,6.13091483 C15.5339673,5.7681388 16.0862213,5.46582545 16.7585305,5.22397476 C17.4308398,4.98212408 18.255219,4.86119874 19.2316681,4.86119874 C20.2401319,4.86119874 21.1045295,4.98212408 21.8248608,5.22397476 C22.5451922,5.46582545 23.1214572,5.8044164 23.553656,6.23974763 C23.9858548,6.67507886 24.3060021,7.17893445 24.5140978,7.75131441 C24.7221935,8.32369436 24.8262414,8.9404136 24.8262414,9.60147213 L24.8262414,17.0746583 C24.8262414,17.2520154 24.7702156,17.3971258 24.6581641,17.5099895 C24.5461125,17.6228531 24.4020463,17.679285 24.2259653,17.679285 L21.8728829,17.679285 C21.7128093,17.679285 21.5767467,17.6228531 21.4646952,17.5099895 C21.3526436,17.3971258 21.2966179,17.2520154 21.2966179,17.0746583 L21.2966179,16.1798107 C21.0885222,16.4861549 20.8083933,16.7723449 20.4562313,17.0383807 C20.1040694,17.3044164 19.6838761,17.5180512 19.1956515,17.679285 C18.707427,17.8405188 18.1351637,17.9211356 17.4788619,17.9211356 Z M18.4393036,15.4058885 C18.9675466,15.4058885 19.4397638,15.2930249 19.8559552,15.0672976 C20.2721467,14.8415703 20.6002976,14.4949176 20.840408,14.0273396 C21.0805185,13.5597617 21.2005737,12.9712583 21.2005737,12.2618297 L21.2005737,11.8506835 L18.9675466,12.2134595 C18.103149,12.3585699 17.4708582,12.5762355 17.0706741,12.8664564 C16.67049,13.1566772 16.470398,13.5113915 16.470398,13.9305994 C16.470398,14.2369436 16.5624403,14.5029793 16.746525,14.7287066 C16.9306097,14.9544339 17.174722,15.1237294 17.4788619,15.2365931 C17.7830018,15.3494567 18.103149,15.4058885 18.4393036,15.4058885 Z" id="Shape"></path>
                    <path d="M33.2799549,17.9211356 C32.1114175,17.9211356 31.0829444,17.70347 30.1945358,17.2681388 C29.3061271,16.8328076 28.605805,16.1999649 28.0935694,15.3696109 C27.5813338,14.5392569 27.3012049,13.5436383 27.2531829,12.382755 C27.2371755,12.1247809 27.2291718,11.7982825 27.2291718,11.4032597 C27.2291718,11.0082369 27.2371755,10.6817385 27.2531829,10.4237645 C27.3012049,9.2467578 27.577332,8.24307746 28.0815639,7.41272345 C28.5857958,6.58236944 29.2861179,5.94952681 30.1825302,5.51419558 C31.0789426,5.07886435 32.1114175,4.86119874 33.2799549,4.86119874 C34.3524482,4.86119874 35.2648679,5.01033999 36.017214,5.3086225 C36.76956,5.60690501 37.3858435,5.98177357 37.8660644,6.43322818 C38.3462853,6.88468279 38.7024491,7.35629162 38.9345558,7.84805468 C39.1666626,8.33981774 39.2907197,8.77111812 39.306727,9.14195584 C39.3227344,9.30318962 39.2707105,9.44426919 39.1506552,9.56519453 C39.0306,9.68611987 38.8905356,9.74658254 38.730462,9.74658254 L36.1612802,9.74658254 C36.0012066,9.74658254 35.8771495,9.70224325 35.7891091,9.61356467 C35.7010686,9.52488608 35.6170299,9.3999299 35.5369931,9.23869611 C35.31289,8.67437785 35.0247575,8.27129338 34.6725955,8.02944269 C34.3204335,7.78759201 33.880231,7.66666667 33.3519881,7.66666667 C32.6316567,7.66666667 32.0633954,7.90045566 31.6472039,8.36803365 C31.2310125,8.83561164 31.0069094,9.56116369 30.9748947,10.5446898 C30.9588873,11.1735016 30.9588873,11.7458815 30.9748947,12.2618297 C31.0229168,13.2614791 31.2510217,13.9870312 31.6592095,14.4384858 C32.0673972,14.8899404 32.6316567,15.1156677 33.3519881,15.1156677 C33.9122458,15.1156677 34.3604519,14.9947424 34.6966065,14.7528917 C35.0327612,14.511041 35.31289,14.1079565 35.5369931,13.5436383 C35.6010225,13.3824045 35.6810594,13.2574483 35.7771035,13.1687697 C35.8731477,13.0800911 36.0012066,13.0357518 36.1612802,13.0357518 L38.730462,13.0357518 C38.8905356,13.0357518 39.0306,13.0962145 39.1506552,13.2171399 C39.2707105,13.3380652 39.3227344,13.4791448 39.306727,13.6403785 C39.2907197,13.914476 39.2146847,14.2369436 39.0786221,14.6077813 C38.9425595,14.978619 38.7264601,15.3575184 38.4303239,15.7444795 C38.1341877,16.1314406 37.7540128,16.4901858 37.2897993,16.820715 C36.8255858,17.1512443 36.2613263,17.4172801 35.5970207,17.6188223 C34.9327151,17.8203645 34.1603599,17.9211356 33.2799549,17.9211356 Z" id="Path"></path>
                    <path d="M42.2379004,17.679285 C42.0778268,17.679285 41.9417642,17.6228531 41.8297127,17.5099895 C41.7176612,17.3971258 41.6616354,17.2520154 41.6616354,17.0746583 L41.6616354,5.70767613 C41.6616354,5.53031896 41.7176612,5.38520855 41.8297127,5.2723449 C41.9417642,5.15948125 42.0778268,5.10304942 42.2379004,5.10304942 L44.6390049,5.10304942 C44.8150858,5.10304942 44.9591521,5.15948125 45.0712036,5.2723449 C45.1832552,5.38520855 45.239281,5.53031896 45.239281,5.70767613 L45.239281,17.0746583 C45.239281,17.2520154 45.1832552,17.3971258 45.0712036,17.5099895 C44.9591521,17.6228531 44.8150858,17.679285 44.6390049,17.679285 L42.2379004,17.679285 Z M42.1658673,3.16824395 C42.0057937,3.16824395 41.8697311,3.11181213 41.7576796,2.99894848 C41.645628,2.88608482 41.5896022,2.74097441 41.5896022,2.56361725 L41.5896022,0.628811777 C41.5896022,0.451454609 41.645628,0.302313354 41.7576796,0.181388013 C41.8697311,0.0604626709 42.0057937,0 42.1658673,0 L44.6870269,0 C44.8631079,0 45.011176,0.0604626709 45.1312313,0.181388013 C45.2512865,0.302313354 45.3113141,0.451454609 45.3113141,0.628811777 L45.3113141,2.56361725 C45.3113141,2.74097441 45.2512865,2.88608482 45.1312313,2.99894848 C45.011176,3.11181213 44.8631079,3.16824395 44.6870269,3.16824395 L42.1658673,3.16824395 Z" id="Shape"></path>
                    <path d="M48.8469697,17.679285 C48.6708887,17.679285 48.5268224,17.6228531 48.4147709,17.5099895 C48.3027193,17.3971258 48.2466935,17.2520154 48.2466935,17.0746583 L48.2466935,1.11251314 C48.2466935,0.935155976 48.3027193,0.790045566 48.4147709,0.677181914 C48.5268224,0.564318261 48.6708887,0.507886435 48.8469697,0.507886435 L51.2480741,0.507886435 C51.4081477,0.507886435 51.5442103,0.564318261 51.6562618,0.677181914 C51.7683134,0.790045566 51.8243391,0.935155976 51.8243391,1.11251314 L51.8243391,17.0746583 C51.8243391,17.2520154 51.7683134,17.3971258 51.6562618,17.5099895 C51.5442103,17.6228531 51.4081477,17.679285 51.2480741,17.679285 L48.8469697,17.679285 Z" id="Path"></path>
                    <path d="M56.1037362,17.679285 C55.9436626,17.679285 55.8076,17.6228531 55.6955484,17.5099895 C55.5834969,17.3971258 55.5274711,17.2520154 55.5274711,17.0746583 L55.5274711,5.70767613 C55.5274711,5.53031896 55.5834969,5.38520855 55.6955484,5.2723449 C55.8076,5.15948125 55.9436626,5.10304942 56.1037362,5.10304942 L58.5048406,5.10304942 C58.6809216,5.10304942 58.8249879,5.15948125 58.9370394,5.2723449 C59.0490909,5.38520855 59.1051167,5.53031896 59.1051167,5.70767613 L59.1051167,17.0746583 C59.1051167,17.2520154 59.0490909,17.3971258 58.9370394,17.5099895 C58.8249879,17.6228531 58.6809216,17.679285 58.5048406,17.679285 L56.1037362,17.679285 Z M56.0317031,3.16824395 C55.8716294,3.16824395 55.7355668,3.11181213 55.6235153,2.99894848 C55.5114638,2.88608482 55.455438,2.74097441 55.455438,2.56361725 L55.455438,0.628811777 C55.455438,0.451454609 55.5114638,0.302313354 55.6235153,0.181388013 C55.7355668,0.0604626709 55.8716294,0 56.0317031,0 L58.5528627,0 C58.7289437,0 58.8770118,0.0604626709 58.997067,0.181388013 C59.1171222,0.302313354 59.1771498,0.451454609 59.1771498,0.628811777 L59.1771498,2.56361725 C59.1771498,2.74097441 59.1171222,2.88608482 58.997067,2.99894848 C58.8770118,3.11181213 58.7289437,3.16824395 58.5528627,3.16824395 L56.0317031,3.16824395 Z" id="Shape"></path>
                    <path d="M68.1152903,17.679285 C67.1228338,17.679285 66.2744436,17.5140203 65.5701197,17.1834911 C64.8657957,16.8529618 64.3335509,16.3410445 63.9733852,15.6477392 C63.6132196,14.9544339 63.4331367,14.0837715 63.4331367,13.0357518 L63.4331367,7.95688749 L61.5602753,7.95688749 C61.3841943,7.95688749 61.240128,7.90045566 61.1280765,7.78759201 C61.0160249,7.67472836 60.9599992,7.52961795 60.9599992,7.35226078 L60.9599992,5.70767613 C60.9599992,5.53031896 61.0160249,5.38520855 61.1280765,5.2723449 C61.240128,5.15948125 61.3841943,5.10304942 61.5602753,5.10304942 L63.4331367,5.10304942 L63.4331367,1.11251314 C63.4331367,0.935155976 63.4931643,0.790045566 63.6132196,0.677181914 C63.7332748,0.564318261 63.8733392,0.507886435 64.0334128,0.507886435 L66.3864952,0.507886435 C66.5625761,0.507886435 66.7066424,0.564318261 66.818694,0.677181914 C66.9307455,0.790045566 66.9867713,0.935155976 66.9867713,1.11251314 L66.9867713,5.10304942 L69.9881518,5.10304942 C70.1482254,5.10304942 70.284288,5.15948125 70.3963395,5.2723449 C70.5083911,5.38520855 70.5644168,5.53031896 70.5644168,5.70767613 L70.5644168,7.35226078 C70.5644168,7.52961795 70.5083911,7.67472836 70.3963395,7.78759201 C70.284288,7.90045566 70.1482254,7.95688749 69.9881518,7.95688749 L66.9867713,7.95688749 L66.9867713,12.745531 C66.9867713,13.3582194 67.094821,13.8378899 67.3109204,14.1845426 C67.5270198,14.5311952 67.9071946,14.7045216 68.451445,14.7045216 L70.2042512,14.7045216 C70.3643248,14.7045216 70.5003874,14.7609534 70.6124389,14.873817 C70.7244905,14.9866807 70.7805162,15.1237294 70.7805162,15.2849632 L70.7805162,17.0746583 C70.7805162,17.2520154 70.7244905,17.3971258 70.6124389,17.5099895 C70.5003874,17.6228531 70.3643248,17.679285 70.2042512,17.679285 L68.1152903,17.679285 Z" id="Path"></path>
                    <path d="M75.1424732,22.2744479 C75.0144143,22.2744479 74.898361,22.2260778 74.7943131,22.1293375 C74.6902652,22.0325973 74.6382413,21.9116719 74.6382413,21.7665615 C74.6382413,21.7343148 74.646245,21.6899755 74.6622524,21.6335436 C74.6782597,21.5771118 74.7022708,21.5085875 74.7342855,21.4279706 L76.6071469,16.9053628 L71.9970265,5.94952681 C71.9490044,5.82053978 71.9249933,5.71573782 71.9249933,5.63512093 C71.9410007,5.49001052 71.9970265,5.36505433 72.0930706,5.26025237 C72.1891148,5.1554504 72.30917,5.10304942 72.4532363,5.10304942 L74.7823076,5.10304942 C74.9904033,5.10304942 75.1424732,5.1554504 75.2385174,5.26025237 C75.3345616,5.36505433 75.4065947,5.47388714 75.4546168,5.58675079 L78.4319863,13.084122 L81.4813889,5.58675079 C81.5454184,5.45776376 81.6254552,5.34490011 81.7214993,5.24815983 C81.8175435,5.15141956 81.9696135,5.10304942 82.1777092,5.10304942 L84.4587584,5.10304942 C84.6028246,5.10304942 84.7268817,5.1554504 84.8309296,5.26025237 C84.9349774,5.36505433 84.9870013,5.48194883 84.9870013,5.61093586 C84.9870013,5.69155275 84.9549866,5.8044164 84.8909572,5.94952681 L78.0958317,21.7907466 C78.0478096,21.9197336 77.9717746,22.0325973 77.8677268,22.1293375 C77.7636789,22.2260778 77.6076071,22.2744479 77.3995114,22.2744479 L75.1424732,22.2744479 Z" id="Path"></path>
                    <path d="M92.4880609,17.679285 C92.3279873,17.679285 92.1879229,17.6228531 92.0678676,17.5099895 C91.9478124,17.3971258 91.8877848,17.2520154 91.8877848,17.0746583 L91.8877848,1.35436383 C91.8877848,1.17700666 91.9478124,1.03189625 92.0678676,0.919032597 C92.1879229,0.806168945 92.3279873,0.749737119 92.4880609,0.749737119 L94.721088,0.749737119 C94.9611985,0.749737119 95.1412813,0.814230634 95.2613365,0.943217666 C95.3813917,1.0722047 95.4654304,1.16894497 95.5134525,1.23343849 L99.9314846,9.43217666 L104.397539,1.23343849 C104.429554,1.16894497 104.505589,1.0722047 104.625644,0.943217666 C104.745699,0.814230634 104.925782,0.749737119 105.165892,0.749737119 L107.398919,0.749737119 C107.575,0.749737119 107.719067,0.806168945 107.831118,0.919032597 C107.94317,1.03189625 107.999195,1.17700666 107.999195,1.35436383 L107.999195,17.0746583 C107.999195,17.2520154 107.94317,17.3971258 107.831118,17.5099895 C107.719067,17.6228531 107.575,17.679285 107.398919,17.679285 L104.949793,17.679285 C104.789719,17.679285 104.653657,17.6228531 104.541605,17.5099895 C104.429554,17.3971258 104.373528,17.2520154 104.373528,17.0746583 L104.373528,7.30389064 L101.324125,13.0599369 C101.244088,13.2050473 101.14004,13.3340343 101.011982,13.446898 C100.883923,13.5597617 100.715845,13.6161935 100.50775,13.6161935 L99.3792306,13.6161935 C99.1711349,13.6161935 99.0030576,13.5597617 98.8749987,13.446898 C98.7469398,13.3340343 98.6428919,13.2050473 98.5628551,13.0599369 L95.5134525,7.30389064 L95.5134525,17.0746583 C95.5134525,17.2520154 95.4574267,17.3971258 95.3453752,17.5099895 C95.2333236,17.6228531 95.097261,17.679285 94.9371874,17.679285 L92.4880609,17.679285 Z" id="Path"></path>
                    <path d="M114.96122,17.9211356 C114.11283,17.9211356 113.35248,17.755871 112.680171,17.4253417 C112.007862,17.0948125 111.471615,16.6473887 111.071431,16.0830705 C110.671247,15.5187522 110.471155,14.8899404 110.471155,14.1966351 C110.471155,13.0518752 110.931366,12.148966 111.85179,11.4879075 C112.772213,10.8268489 113.984771,10.3753943 115.489463,10.1335436 L118.63491,9.67402734 L118.63491,9.23869611 C118.63491,8.60988433 118.490843,8.12618297 118.202711,7.78759201 C117.914578,7.44900105 117.410346,7.27970557 116.690015,7.27970557 C116.161772,7.27970557 115.737577,7.38450754 115.41743,7.59411146 C115.097283,7.80371539 114.849168,8.07781283 114.673087,8.41640379 C114.545029,8.62600771 114.360944,8.73080967 114.120833,8.73080967 L111.839784,8.73080967 C111.663703,8.73080967 111.527641,8.67840869 111.431596,8.57360673 C111.335552,8.46880477 111.295534,8.34384858 111.311541,8.19873817 C111.311541,7.92464073 111.415589,7.60217315 111.623685,7.23133544 C111.831781,6.86049772 112.151928,6.49369085 112.584127,6.13091483 C113.016325,5.7681388 113.568579,5.46582545 114.240889,5.22397476 C114.913198,4.98212408 115.737577,4.86119874 116.714026,4.86119874 C117.72249,4.86119874 118.586888,4.98212408 119.307219,5.22397476 C120.02755,5.46582545 120.603815,5.8044164 121.036014,6.23974763 C121.468213,6.67507886 121.78836,7.17893445 121.996456,7.75131441 C122.204552,8.32369436 122.308599,8.9404136 122.308599,9.60147213 L122.308599,17.0746583 C122.308599,17.2520154 122.252574,17.3971258 122.140522,17.5099895 C122.028471,17.6228531 121.884404,17.679285 121.708323,17.679285 L119.355241,17.679285 C119.195167,17.679285 119.059105,17.6228531 118.947053,17.5099895 C118.835002,17.3971258 118.778976,17.2520154 118.778976,17.0746583 L118.778976,16.1798107 C118.57088,16.4861549 118.290751,16.7723449 117.938589,17.0383807 C117.586427,17.3044164 117.166234,17.5180512 116.67801,17.679285 C116.189785,17.8405188 115.617522,17.9211356 114.96122,17.9211356 Z M115.921662,15.4058885 C116.449905,15.4058885 116.922122,15.2930249 117.338313,15.0672976 C117.754505,14.8415703 118.082656,14.4949176 118.322766,14.0273396 C118.562877,13.5597617 118.682932,12.9712583 118.682932,12.2618297 L118.682932,11.8506835 L116.449905,12.2134595 C115.585507,12.3585699 114.953216,12.5762355 114.553032,12.8664564 C114.152848,13.1566772 113.952756,13.5113915 113.952756,13.9305994 C113.952756,14.2369436 114.044798,14.5029793 114.228883,14.7287066 C114.412968,14.9544339 114.65708,15.1237294 114.96122,15.2365931 C115.26536,15.3494567 115.585507,15.4058885 115.921662,15.4058885 Z" id="Shape"></path>
                    <path d="M125.792027,17.679285 C125.631953,17.679285 125.495891,17.6228531 125.383839,17.5099895 C125.271788,17.3971258 125.215762,17.2520154 125.215762,17.0746583 L125.215762,5.70767613 C125.215762,5.53031896 125.271788,5.38520855 125.383839,5.2723449 C125.495891,5.15948125 125.631953,5.10304942 125.792027,5.10304942 L128.145109,5.10304942 C128.32119,5.10304942 128.465256,5.15948125 128.577308,5.2723449 C128.68936,5.38520855 128.745385,5.53031896 128.745385,5.70767613 L128.745385,6.6508938 C129.161577,6.13494567 129.697823,5.70767613 130.354125,5.36908517 C131.010427,5.03049422 131.810795,4.86119874 132.75523,4.86119874 C133.699664,4.86119874 134.528045,5.07483351 135.240373,5.50210305 C135.9527,5.92937259 136.512958,6.55012268 136.921146,7.36435331 C137.329334,8.17858395 137.533427,9.1661409 137.533427,10.3270242 L137.533427,17.0746583 C137.533427,17.2520154 137.4734,17.3971258 137.353345,17.5099895 C137.233289,17.6228531 137.093225,17.679285 136.933151,17.679285 L134.387981,17.679285 C134.2119,17.679285 134.067833,17.6228531 133.955782,17.5099895 C133.84373,17.3971258 133.787705,17.2520154 133.787705,17.0746583 L133.787705,10.4721346 C133.787705,9.61759551 133.583611,8.95250613 133.175423,8.47686646 C132.767235,8.00122678 132.170961,7.76340694 131.3866,7.76340694 C130.634254,7.76340694 130.033978,8.00122678 129.585772,8.47686646 C129.137566,8.95250613 128.913463,9.61759551 128.913463,10.4721346 L128.913463,17.0746583 C128.913463,17.2520154 128.857437,17.3971258 128.745385,17.5099895 C128.633334,17.6228531 128.497271,17.679285 128.337198,17.679285 L125.792027,17.679285 Z" id="Path"></path>
                    <path d="M144.089668,17.9211356 C143.241277,17.9211356 142.480928,17.755871 141.808619,17.4253417 C141.136309,17.0948125 140.600063,16.6473887 140.199879,16.0830705 C139.799694,15.5187522 139.599602,14.8899404 139.599602,14.1966351 C139.599602,13.0518752 140.059814,12.148966 140.980237,11.4879075 C141.900661,10.8268489 143.113219,10.3753943 144.617911,10.1335436 L147.763357,9.67402734 L147.763357,9.23869611 C147.763357,8.60988433 147.619291,8.12618297 147.331159,7.78759201 C147.043026,7.44900105 146.538794,7.27970557 145.818463,7.27970557 C145.29022,7.27970557 144.866025,7.38450754 144.545878,7.59411146 C144.22573,7.80371539 143.977616,8.07781283 143.801535,8.41640379 C143.673476,8.62600771 143.489392,8.73080967 143.249281,8.73080967 L140.968232,8.73080967 C140.792151,8.73080967 140.656088,8.67840869 140.560044,8.57360673 C140.464,8.46880477 140.423982,8.34384858 140.439989,8.19873817 C140.439989,7.92464073 140.544037,7.60217315 140.752133,7.23133544 C140.960228,6.86049772 141.280376,6.49369085 141.712574,6.13091483 C142.144773,5.7681388 142.697027,5.46582545 143.369336,5.22397476 C144.041646,4.98212408 144.866025,4.86119874 145.842474,4.86119874 C146.850938,4.86119874 147.715335,4.98212408 148.435667,5.22397476 C149.155998,5.46582545 149.732263,5.8044164 150.164462,6.23974763 C150.596661,6.67507886 150.916808,7.17893445 151.124904,7.75131441 C151.332999,8.32369436 151.437047,8.9404136 151.437047,9.60147213 L151.437047,17.0746583 C151.437047,17.2520154 151.381021,17.3971258 151.26897,17.5099895 C151.156918,17.6228531 151.012852,17.679285 150.836771,17.679285 L148.483689,17.679285 C148.323615,17.679285 148.187553,17.6228531 148.075501,17.5099895 C147.963449,17.3971258 147.907424,17.2520154 147.907424,17.0746583 L147.907424,16.1798107 C147.699328,16.4861549 147.419199,16.7723449 147.067037,17.0383807 C146.714875,17.3044164 146.294682,17.5180512 145.806457,17.679285 C145.318233,17.8405188 144.74597,17.9211356 144.089668,17.9211356 Z M145.050109,15.4058885 C145.578352,15.4058885 146.05057,15.2930249 146.466761,15.0672976 C146.882953,14.8415703 147.211103,14.4949176 147.451214,14.0273396 C147.691324,13.5597617 147.81138,12.9712583 147.81138,12.2618297 L147.81138,11.8506835 L145.578352,12.2134595 C144.713955,12.3585699 144.081664,12.5762355 143.68148,12.8664564 C143.281296,13.1566772 143.081204,13.5113915 143.081204,13.9305994 C143.081204,14.2369436 143.173246,14.5029793 143.357331,14.7287066 C143.541416,14.9544339 143.785528,15.1237294 144.089668,15.2365931 C144.393808,15.3494567 144.713955,15.4058885 145.050109,15.4058885 Z" id="Shape"></path>
                    <path d="M160.202904,23 C159.01836,23 158.033907,22.8427971 157.249546,22.5283912 C156.465185,22.2139853 155.8449,21.8350859 155.38869,21.391693 C154.93248,20.9483 154.608331,20.508938 154.416243,20.0736067 C154.224154,19.6382755 154.120107,19.2996845 154.104099,19.0578339 C154.088092,18.8804767 154.144118,18.7353663 154.272176,18.6225026 C154.400235,18.509639 154.544302,18.4532072 154.704375,18.4532072 L157.273557,18.4532072 C157.417623,18.4532072 157.54168,18.4894848 157.645728,18.56204 C157.749776,18.6345952 157.833815,18.7595513 157.897844,18.9369085 C157.977881,19.1303891 158.089932,19.3359621 158.233999,19.5536278 C158.378065,19.7712934 158.598166,19.9526814 158.894302,20.0977918 C159.190439,20.2429022 159.586621,20.3154574 160.082849,20.3154574 C160.643107,20.3154574 161.10732,20.2348405 161.47549,20.0736067 C161.843659,19.9123729 162.119786,19.6382755 162.303871,19.2513144 C162.487955,18.8643533 162.579998,18.3403435 162.579998,17.679285 L162.579998,16.0588854 C162.195821,16.4780932 161.711598,16.8247459 161.12733,17.0988433 C160.543061,17.3729408 159.826731,17.5099895 158.978341,17.5099895 C158.145958,17.5099895 157.413621,17.3769716 156.781331,17.1109359 C156.14904,16.8449001 155.624799,16.4660007 155.208607,15.9742376 C154.792416,15.4824746 154.472268,14.8899404 154.248165,14.1966351 C154.024062,13.5033298 153.896003,12.721346 153.863989,11.8506835 C153.847981,11.4153523 153.847981,10.9880827 153.863989,10.5688749 C153.896003,9.73045917 154.024062,8.96459867 154.248165,8.27129338 C154.472268,7.57798808 154.792416,6.97739222 155.208607,6.46950578 C155.624799,5.96161935 156.14904,5.56659657 156.781331,5.28443743 C157.413621,5.0022783 158.145958,4.86119874 158.978341,4.86119874 C159.858746,4.86119874 160.611092,5.03049422 161.235379,5.36908517 C161.859666,5.70767613 162.371902,6.12688398 162.772086,6.62670873 L162.772086,5.70767613 C162.772086,5.54644234 162.828112,5.40536278 162.940163,5.28443743 C163.052215,5.16351209 163.188278,5.10304942 163.348351,5.10304942 L165.701433,5.10304942 C165.861507,5.10304942 166.001572,5.16351209 166.121627,5.28443743 C166.241682,5.40536278 166.30171,5.54644234 166.30171,5.70767613 L166.325721,17.340694 C166.325721,18.5499474 166.093614,19.573782 165.6294,20.4121977 C165.165187,21.2506134 164.480872,21.8915177 163.576456,22.3349106 C162.67204,22.7783035 161.547523,23 160.202904,23 Z M160.082849,14.6803365 C160.659114,14.6803365 161.12733,14.5473186 161.487495,14.2812829 C161.847661,14.0152471 162.115784,13.6766562 162.291865,13.26551 C162.467946,12.8543638 162.56399,12.4230634 162.579998,11.9716088 C162.596005,11.7942517 162.604009,11.5403084 162.604009,11.2097792 C162.604009,10.8792499 162.596005,10.6253067 162.579998,10.4479495 C162.56399,9.99649492 162.467946,9.56519453 162.291865,9.15404837 C162.115784,8.74290221 161.847661,8.4083421 161.487495,8.15036803 C161.12733,7.89239397 160.659114,7.76340694 160.082849,7.76340694 C159.474569,7.76340694 158.994348,7.89642482 158.642186,8.16246057 C158.290025,8.42849632 158.033907,8.77917981 157.873833,9.21451104 C157.713759,9.64984227 157.617715,10.1254819 157.585701,10.6414301 C157.569693,11.0283912 157.569693,11.4072906 157.585701,11.7781283 C157.617715,12.3101998 157.713759,12.7939012 157.873833,13.2292324 C158.033907,13.6645636 158.290025,14.0152471 158.642186,14.2812829 C158.994348,14.5473186 159.474569,14.6803365 160.082849,14.6803365 Z" id="Shape"></path>
                    <path d="M174.911195,17.9211356 C173.070348,17.9211356 171.609676,17.4051875 170.529179,16.3732913 C169.448682,15.341395 168.876419,13.8419208 168.812389,11.8748686 C168.812389,11.7458815 168.812389,11.5725552 168.812389,11.3548896 C168.812389,11.137224 168.812389,10.9638977 168.812389,10.8349106 C168.876419,9.59341045 169.156548,8.52523659 169.652776,7.63038906 C170.149004,6.73554154 170.845324,6.05029793 171.741737,5.57465825 C172.638149,5.09901858 173.686631,4.86119874 174.887183,4.86119874 C176.231802,4.86119874 177.356319,5.13932702 178.260735,5.6955836 C179.165151,6.25184017 179.845464,7.00963898 180.301674,7.96898002 C180.757884,8.92832107 180.985989,10.0287417 180.985989,11.2702419 L180.985989,11.8264984 C180.985989,11.9877322 180.925961,12.1247809 180.805906,12.2376446 C180.685851,12.3505082 180.545786,12.4069401 180.385713,12.4069401 L172.534101,12.4069401 C172.534101,12.4230634 172.534101,12.4512794 172.534101,12.4915878 C172.534101,12.5318962 172.534101,12.5681739 172.534101,12.6004206 C172.550108,13.1163687 172.650155,13.5879776 172.834239,14.0152471 C173.018324,14.4425166 173.282445,14.7851385 173.626604,15.0431125 C173.970762,15.3010866 174.382952,15.4300736 174.863172,15.4300736 C175.263356,15.4300736 175.591507,15.3736418 175.847625,15.2607781 C176.103743,15.1479145 176.315841,15.0108658 176.483918,14.849632 C176.651995,14.6883982 176.776052,14.5513495 176.856089,14.4384858 C177.000155,14.277252 177.116209,14.1764809 177.204249,14.1361725 C177.29229,14.095864 177.432354,14.0757098 177.624442,14.0757098 L180.121591,14.0757098 C180.281665,14.0757098 180.413725,14.1200491 180.517773,14.2087277 C180.621821,14.2974062 180.665841,14.4223624 180.649834,14.5835962 C180.633827,14.8415703 180.501766,15.160007 180.253652,15.5389064 C180.005538,15.9178058 179.64137,16.2886435 179.161149,16.6514196 C178.680928,17.0141956 178.084654,17.3165089 177.372327,17.5583596 C176.659999,17.8002103 175.839622,17.9211356 174.911195,17.9211356 Z M172.534101,10.2060988 L177.240266,10.2060988 L177.240266,10.1577287 C177.240266,9.57728707 177.148223,9.07343148 176.964139,8.64616193 C176.780054,8.21889239 176.511931,7.88433228 176.159769,7.6424816 C175.807607,7.40063091 175.383412,7.27970557 174.887183,7.27970557 C174.390955,7.27970557 173.96676,7.40063091 173.614598,7.6424816 C173.262436,7.88433228 172.994313,8.21889239 172.810228,8.64616193 C172.626143,9.07343148 172.534101,9.57728707 172.534101,10.1577287 L172.534101,10.2060988 Z" id="Shape"></path>
                    <path d="M183.974486,17.679285 C183.814412,17.679285 183.67835,17.6228531 183.566298,17.5099895 C183.454247,17.3971258 183.398221,17.2520154 183.398221,17.0746583 L183.398221,5.70767613 C183.398221,5.53031896 183.454247,5.38520855 183.566298,5.2723449 C183.67835,5.15948125 183.814412,5.10304942 183.974486,5.10304942 L186.207513,5.10304942 C186.367587,5.10304942 186.507651,5.15948125 186.627706,5.2723449 C186.747761,5.38520855 186.807789,5.53031896 186.807789,5.70767613 L186.807789,6.52996845 C187.127936,6.07851385 187.572141,5.69155275 188.140402,5.36908517 C188.708663,5.0466176 189.384974,4.87732212 190.169335,4.86119874 C192.026189,4.82895198 193.298775,5.53838065 193.987091,6.98948475 C194.355261,6.36067298 194.887505,5.8487557 195.583826,5.45373291 C196.280146,5.05871013 197.044498,4.86119874 197.87688,4.86119874 C198.709263,4.86119874 199.461609,5.05064844 200.133919,5.42954784 C200.806228,5.80844725 201.338473,6.38888889 201.730653,7.17087277 C202.122833,7.95285664 202.318924,8.95653698 202.318924,10.1819138 L202.318924,17.0746583 C202.318924,17.2520154 202.262898,17.3971258 202.150846,17.5099895 C202.038795,17.6228531 201.902732,17.679285 201.742658,17.679285 L199.365565,17.679285 C199.205491,17.679285 199.069429,17.6228531 198.957377,17.5099895 C198.845326,17.3971258 198.7893,17.2520154 198.7893,17.0746583 L198.7893,10.3753943 C198.7893,9.71433579 198.693256,9.19435682 198.501168,8.81545741 C198.309079,8.43655801 198.056963,8.16649141 197.74482,8.00525762 C197.432676,7.84402383 197.084516,7.76340694 196.700339,7.76340694 C196.364185,7.76340694 196.040036,7.84402383 195.727892,8.00525762 C195.415748,8.16649141 195.159631,8.43655801 194.959539,8.81545741 C194.759446,9.19435682 194.6594,9.71433579 194.6594,10.3753943 L194.6594,17.0746583 C194.6594,17.2520154 194.603375,17.3971258 194.491323,17.5099895 C194.379272,17.6228531 194.235205,17.679285 194.059124,17.679285 L191.706042,17.679285 C191.529961,17.679285 191.385895,17.6228531 191.273843,17.5099895 C191.161792,17.3971258 191.105766,17.2520154 191.105766,17.0746583 L191.105766,10.3753943 C191.105766,9.71433579 191.009722,9.19435682 190.817633,8.81545741 C190.625545,8.43655801 190.373429,8.16649141 190.061286,8.00525762 C189.749142,7.84402383 189.408985,7.76340694 189.040816,7.76340694 C188.704662,7.76340694 188.376511,7.84805468 188.056363,8.01735016 C187.736216,8.18664564 187.476096,8.45671223 187.276004,8.82754995 C187.075912,9.19838766 186.975866,9.7062741 186.975866,10.3512093 L186.975866,17.0746583 C186.975866,17.2520154 186.919841,17.3971258 186.807789,17.5099895 C186.695737,17.6228531 186.559675,17.679285 186.399601,17.679285 L183.974486,17.679285 Z" id="Path"></path>
                    <path d="M210.788837,17.9211356 C208.94799,17.9211356 207.487318,17.4051875 206.406821,16.3732913 C205.326324,15.341395 204.754061,13.8419208 204.690032,11.8748686 C204.690032,11.7458815 204.690032,11.5725552 204.690032,11.3548896 C204.690032,11.137224 204.690032,10.9638977 204.690032,10.8349106 C204.754061,9.59341045 205.03419,8.52523659 205.530418,7.63038906 C206.026647,6.73554154 206.722967,6.05029793 207.619379,5.57465825 C208.515791,5.09901858 209.564274,4.86119874 210.764826,4.86119874 C212.109444,4.86119874 213.233962,5.13932702 214.138378,5.6955836 C215.042794,6.25184017 215.723107,7.00963898 216.179316,7.96898002 C216.635526,8.92832107 216.863631,10.0287417 216.863631,11.2702419 L216.863631,11.8264984 C216.863631,11.9877322 216.803604,12.1247809 216.683548,12.2376446 C216.563493,12.3505082 216.423429,12.4069401 216.263355,12.4069401 L208.411744,12.4069401 C208.411744,12.4230634 208.411744,12.4512794 208.411744,12.4915878 C208.411744,12.5318962 208.411744,12.5681739 208.411744,12.6004206 C208.427751,13.1163687 208.527797,13.5879776 208.711882,14.0152471 C208.895966,14.4425166 209.160088,14.7851385 209.504246,15.0431125 C209.848404,15.3010866 210.260594,15.4300736 210.740815,15.4300736 C211.140999,15.4300736 211.46915,15.3736418 211.725268,15.2607781 C211.981385,15.1479145 212.193483,15.0108658 212.36156,14.849632 C212.529638,14.6883982 212.653695,14.5513495 212.733732,14.4384858 C212.877798,14.277252 212.993851,14.1764809 213.081892,14.1361725 C213.169932,14.095864 213.309997,14.0757098 213.502085,14.0757098 L215.999234,14.0757098 C216.159307,14.0757098 216.291368,14.1200491 216.395416,14.2087277 C216.499464,14.2974062 216.543484,14.4223624 216.527477,14.5835962 C216.511469,14.8415703 216.379408,15.160007 216.131294,15.5389064 C215.88318,15.9178058 215.519013,16.2886435 215.038792,16.6514196 C214.558571,17.0141956 213.962297,17.3165089 213.249969,17.5583596 C212.537641,17.8002103 211.717264,17.9211356 210.788837,17.9211356 Z M208.411744,10.2060988 L213.117908,10.2060988 L213.117908,10.1577287 C213.117908,9.57728707 213.025866,9.07343148 212.841781,8.64616193 C212.657697,8.21889239 212.389573,7.88433228 212.037411,7.6424816 C211.685249,7.40063091 211.261054,7.27970557 210.764826,7.27970557 C210.268598,7.27970557 209.844403,7.40063091 209.492241,7.6424816 C209.140079,7.88433228 208.871955,8.21889239 208.687871,8.64616193 C208.503786,9.07343148 208.411744,9.57728707 208.411744,10.1577287 L208.411744,10.2060988 Z" id="Shape"></path>
                    <path d="M219.852128,17.679285 C219.692055,17.679285 219.555992,17.6228531 219.443941,17.5099895 C219.331889,17.3971258 219.275863,17.2520154 219.275863,17.0746583 L219.275863,5.70767613 C219.275863,5.53031896 219.331889,5.38520855 219.443941,5.2723449 C219.555992,5.15948125 219.692055,5.10304942 219.852128,5.10304942 L222.205211,5.10304942 C222.381292,5.10304942 222.525358,5.15948125 222.637409,5.2723449 C222.749461,5.38520855 222.805487,5.53031896 222.805487,5.70767613 L222.805487,6.6508938 C223.221678,6.13494567 223.757925,5.70767613 224.414227,5.36908517 C225.070529,5.03049422 225.870897,4.86119874 226.815331,4.86119874 C227.759765,4.86119874 228.588147,5.07483351 229.300474,5.50210305 C230.012802,5.92937259 230.573059,6.55012268 230.981247,7.36435331 C231.389435,8.17858395 231.593529,9.1661409 231.593529,10.3270242 L231.593529,17.0746583 C231.593529,17.2520154 231.533501,17.3971258 231.413446,17.5099895 C231.293391,17.6228531 231.153326,17.679285 230.993253,17.679285 L228.448082,17.679285 C228.272001,17.679285 228.127935,17.6228531 228.015883,17.5099895 C227.903832,17.3971258 227.847806,17.2520154 227.847806,17.0746583 L227.847806,10.4721346 C227.847806,9.61759551 227.643712,8.95250613 227.235524,8.47686646 C226.827337,8.00122678 226.231062,7.76340694 225.446702,7.76340694 C224.694356,7.76340694 224.094079,8.00122678 223.645873,8.47686646 C223.197667,8.95250613 222.973564,9.61759551 222.973564,10.4721346 L222.973564,17.0746583 C222.973564,17.2520154 222.917538,17.3971258 222.805487,17.5099895 C222.693435,17.6228531 222.557373,17.679285 222.397299,17.679285 L219.852128,17.679285 Z" id="Path"></path>
                    <path d="M240.334774,17.679285 C239.342318,17.679285 238.493927,17.5140203 237.789603,17.1834911 C237.085279,16.8529618 236.553035,16.3410445 236.192869,15.6477392 C235.832703,14.9544339 235.65262,14.0837715 235.65262,13.0357518 L235.65262,7.95688749 L233.779759,7.95688749 C233.603678,7.95688749 233.459612,7.90045566 233.34756,7.78759201 C233.235509,7.67472836 233.179483,7.52961795 233.179483,7.35226078 L233.179483,5.70767613 C233.179483,5.53031896 233.235509,5.38520855 233.34756,5.2723449 C233.459612,5.15948125 233.603678,5.10304942 233.779759,5.10304942 L235.65262,5.10304942 L235.65262,1.11251314 C235.65262,0.935155976 235.712648,0.790045566 235.832703,0.677181914 C235.952759,0.564318261 236.092823,0.507886435 236.252897,0.507886435 L238.605979,0.507886435 C238.78206,0.507886435 238.926126,0.564318261 239.038178,0.677181914 C239.150229,0.790045566 239.206255,0.935155976 239.206255,1.11251314 L239.206255,5.10304942 L242.207636,5.10304942 C242.367709,5.10304942 242.503772,5.15948125 242.615823,5.2723449 C242.727875,5.38520855 242.783901,5.53031896 242.783901,5.70767613 L242.783901,7.35226078 C242.783901,7.52961795 242.727875,7.67472836 242.615823,7.78759201 C242.503772,7.90045566 242.367709,7.95688749 242.207636,7.95688749 L239.206255,7.95688749 L239.206255,12.745531 C239.206255,13.3582194 239.314305,13.8378899 239.530404,14.1845426 C239.746504,14.5311952 240.126678,14.7045216 240.670929,14.7045216 L242.423735,14.7045216 C242.583809,14.7045216 242.719871,14.7609534 242.831923,14.873817 C242.943974,14.9866807 243,15.1237294 243,15.2849632 L243,17.0746583 C243,17.2520154 242.943974,17.3971258 242.831923,17.5099895 C242.719871,17.6228531 242.583809,17.679285 242.423735,17.679285 L240.334774,17.679285 Z" id="Path"></path>
                </g>
            </g>
        </g>
    </g>
</svg>