<?xml version="1.0" encoding="UTF-8"?>
<svg width="32px" height="32px" viewBox="0 0 32 32" version="1.1" xmlns="http://www.w3.org/2000/svg" xmlns:xlink="http://www.w3.org/1999/xlink">
    <title>favicon-32x32</title>
    <g id="Page-1" stroke="none" stroke-width="1" fill="none" fill-rule="evenodd">
        <g id="favicon-32x32" fill-rule="nonzero">
            <rect id="Rectangle" fill="#000000" x="0" y="0" width="32" height="32" rx="3"></rect>
            <path d="M11.7976282,14.0717384 C11.3429228,14.0717384 10.9179795,14.0157598 10.5227447,13.9038562 C10.1310018,13.7919527 9.79878319,13.6590438 9.52592772,13.5051295 L9.16394698,13.872375 L8.71799831,13.872375 L8.64982473,11.1810498 L9.10098446,11.1810498 C9.20241213,11.4363381 9.33182911,11.7056479 9.4892354,11.9889792 C9.64664169,12.2722568 9.82849161,12.525826 10.0348389,12.7496867 C10.2481701,12.9840233 10.4860524,13.17463 10.7483245,13.3215067 C11.0141424,13.4684371 11.3236902,13.5418755 11.6769679,13.5418755 C12.152625,13.5418755 12.5163249,13.4264263 12.7681749,13.1956354 C13.0235169,12.9612988 13.1511611,12.6674916 13.1511611,12.3142139 C13.1511611,12.0239524 13.0427495,11.7808591 12.8258727,11.5849876 C12.6125415,11.3856242 12.2802691,11.2142502 11.8291094,11.0708654 C11.5353023,10.9764216 11.2642196,10.8889617 11.0159152,10.8085395 C10.7711028,10.7281172 10.5402581,10.6459221 10.3233813,10.5619542 C9.82322683,10.3625908 9.45077024,10.0775404 9.20590408,9.70680291 C8.96458359,9.33606544 8.84392334,8.92159803 8.84392334,8.4634544 C8.84392334,8.17313382 8.90688585,7.89507802 9.03281088,7.62926554 C9.15868219,7.35995574 9.34230495,7.1186245 9.58367917,6.9052772 C9.81452382,6.70591381 10.1100501,6.54328034 10.4703117,6.41736606 C10.8305196,6.29145714 11.2222625,6.2285 11.6454867,6.2285 C12.0581812,6.2285 12.4446593,6.28620848 12.804921,6.4016308 C13.1651289,6.51355043 13.4484602,6.62722141 13.6548075,6.74263836 L13.9748311,6.42785802 L14.4312556,6.42785802 L14.4732127,8.9671008 L14.022053,8.9671008 C13.9171334,8.69424533 13.7929812,8.41623252 13.6495427,8.13291194 C13.5096499,7.84611554 13.3610003,7.60828162 13.203594,7.41941556 C13.0322199,7.21655485 12.8346294,7.05566736 12.6107686,6.93675309 C12.3869616,6.81433612 12.1246357,6.75313032 11.8238446,6.75313032 C11.4461233,6.75313032 11.1365755,6.85980666 10.895255,7.07315933 C10.6574264,7.28650663 10.5384853,7.55057314 10.5384853,7.86535349 C10.5384853,8.16264185 10.6416858,8.40570295 10.8480331,8.5945905 C11.0578723,8.78347804 11.3831608,8.94958734 11.8238446,9.09297211 C12.0826786,9.18043199 12.3467236,9.26789186 12.6160334,9.35529802 C12.8853432,9.44275789 13.1249446,9.5266721 13.3347838,9.60714808 C13.8419222,9.8029658 14.2266274,10.0740484 14.4889534,10.4202885 C14.7547712,10.7630904 14.8876801,11.1897528 14.8876801,11.7003831 C14.8876801,12.0221796 14.8124689,12.3334465 14.6621003,12.6342375 C14.5116779,12.9350286 14.3088225,13.1851058 14.0535343,13.3844692 C13.7736949,13.604838 13.4501793,13.7744393 13.0829338,13.8933804 C12.7156882,14.0122678 12.287253,14.0717384 11.7976282,14.0717384 Z" id="Path" fill="#FFFFFF"></path>
            <path d="M24.4800623,10.8452855 C24.3716508,10.8557614 24.2754341,10.8680101 24.1915199,10.8819778 C24.107552,10.8959994 24.0026324,10.9239349 23.8767074,10.9659458 C23.7333226,11.0113948 23.6388788,11.086606 23.5934298,11.1915256 C23.5479807,11.2964453 23.5252025,11.4066297 23.5252025,11.5220251 L23.5252025,12.3876523 C23.5252025,12.562572 23.5269753,12.704184 23.5304672,12.8126492 C23.5339592,12.9175689 23.539224,13.048705 23.5462079,13.2061112 C23.1964758,13.4159505 22.6788079,13.613541 21.9933116,13.7989366 C21.3112535,13.9842785 20.6834549,14.0770032 20.1098621,14.0770032 C19.5712425,14.0770032 19.0658769,13.9948081 18.5937118,13.8304179 C18.1214929,13.6660277 17.7070793,13.4194424 17.3503096,13.0906621 C16.9935399,12.7654274 16.7119814,12.3614358 16.5056341,11.8787948 C16.3027788,11.3961001 16.2013511,10.8435127 16.2013511,10.2209252 C16.2013511,9.64034845 16.2975677,9.10350168 16.4898935,8.61033112 C16.682273,8.11717131 16.9603395,7.69222269 17.3240931,7.3354745 C17.6808091,6.98221825 18.114509,6.70941113 18.6251393,6.51704775 C19.1393153,6.32468437 19.7076433,6.2285 20.3302309,6.2285 C20.7534013,6.2285 21.1451442,6.28096518 21.5054058,6.38589017 C21.8656137,6.48731784 22.1629128,6.5974915 22.3972494,6.71640577 L22.7225378,6.42785802 L23.1789624,6.42785802 L23.2261842,9.14545878 L22.7644949,9.14545878 C22.4986771,8.33052399 22.1804263,7.72544992 21.8096888,7.33022583 C21.4389513,6.93500174 20.9702781,6.73739507 20.4036692,6.73739507 C19.7321407,6.73739507 19.2127537,7.03118611 18.8455081,7.61877358 C18.4817546,8.20636105 18.2999046,9.0160418 18.2999046,10.047832 C18.2999046,11.1425309 18.4782626,11.999455 18.8350323,12.6184969 C19.1952402,13.2375925 19.7041514,13.5470866 20.3617121,13.5470866 C20.6694871,13.5470866 20.9422888,13.5016375 21.1801174,13.4106857 C21.4214379,13.3162956 21.6085526,13.2078304 21.7414615,13.085451 L21.7414615,11.5745118 C21.7414615,11.4485868 21.718737,11.3436671 21.6732879,11.2596992 C21.6277852,11.1722931 21.5368871,11.0970819 21.4004862,11.0341194 C21.2955128,10.9851784 21.1643768,10.9449404 21.0069705,10.9134591 C20.8496179,10.8819778 20.7184281,10.8592533 20.6135085,10.8452855 L20.6135085,10.4360292 L24.4800623,10.4360292 L24.4800623,10.8452855 Z" id="Path" fill="#FFFFFF"></path>
            <path d="M14.0850155,20.7723575 L13.6810239,20.7723575 C13.5795963,20.4820423 13.3994655,20.1742674 13.1406852,19.8489789 C12.8853432,19.5201986 12.6422499,19.3400678 12.4114052,19.3086402 C12.3064856,19.2946187 12.1665928,19.28237 11.9917268,19.2718942 C11.8168607,19.2614183 11.6559625,19.2561535 11.5090321,19.2561535 L10.3495978,19.2561535 L10.3495978,22.1783771 L11.0893536,22.1783771 C11.2991928,22.1783771 11.4810965,22.1555989 11.6349571,22.1101498 C11.7888714,22.0612088 11.9252723,21.975468 12.0441597,21.8530887 C12.1316196,21.7656288 12.2155875,21.6204712 12.2960098,21.4176159 C12.379924,21.2112686 12.4306378,21.0346297 12.4481513,20.887753 L12.8468781,20.887753 L12.8468781,24.0198158 L12.4481513,24.0198158 C12.4341835,23.8624095 12.379924,23.6718028 12.2855339,23.4479421 C12.1910902,23.2206431 12.1106142,23.0702207 12.0441597,22.9967824 C11.942732,22.8848788 11.8133688,22.8026838 11.6559625,22.7501971 C11.4985562,22.6942185 11.3097224,22.6662829 11.0893536,22.6662829 L10.3495978,22.6662829 L10.3495978,25.1320282 C10.3495978,25.2579532 10.372376,25.3663648 10.4178251,25.4573166 C10.4667661,25.5447228 10.5577179,25.616442 10.6906268,25.6724207 C10.7675571,25.7039019 10.8725305,25.7336103 11.0054394,25.7615996 C11.1418403,25.7860433 11.2764683,25.8053296 11.4093772,25.8192974 L11.4093772,26.2285 L7.39594665,26.2285 L7.39594665,25.8192974 C7.49737432,25.8088215 7.63202922,25.7948 7.79991136,25.7773403 C7.96779349,25.7563349 8.08496179,25.7318375 8.15141625,25.7039019 C8.27732517,25.6549072 8.36476893,25.5867336 8.41373142,25.4992737 C8.46269928,25.4118139 8.48715366,25.2999103 8.48715366,25.1635095 L8.48715366,19.9119414 C8.48715366,19.7930003 8.46444525,19.6898535 8.41898008,19.6023937 C8.37700686,19.5114956 8.2878225,19.4362844 8.15141625,19.3768138 C8.0534859,19.3348567 7.9240743,19.2963915 7.76318681,19.2614183 C7.60229931,19.2264451 7.47988772,19.2036669 7.39594665,19.193191 L7.39594665,18.7839884 L14.0850155,18.7839884 L14.0850155,20.7723575 Z" id="Path" fill="#FFFFFF"></path>
            <path d="M25.3824355,26.2285 L21.3479995,26.2285 L21.3479995,25.8192974 C21.4669407,25.8088215 21.6120445,25.7913081 21.7834186,25.7668107 C21.9583384,25.7423671 22.0772258,25.7160969 22.1401883,25.6881613 C22.2696053,25.6356746 22.3622762,25.5639554 22.4182548,25.4730573 C22.4742335,25.3821054 22.502169,25.26671 22.502169,25.1267634 L22.502169,19.5657013 L19.9419799,26.1078398 L19.2809272,26.1078398 C19.2494997,25.9924443 19.1707966,25.7633188 19.0448715,25.4205706 C18.9224385,25.0778224 18.8227836,24.8032478 18.7458533,24.5969006 L16.8624038,19.4817334 L16.8624038,24.0093399 C16.8624038,24.4429862 16.8903931,24.7735394 16.946318,25.0008921 C17.0057886,25.2246991 17.1002323,25.3890893 17.2296493,25.494009 C17.3170555,25.5674473 17.4727427,25.6374474 17.6965497,25.7039019 C17.9239024,25.7703564 18.0830278,25.8088215 18.1739796,25.8192974 L18.1739796,26.2285 L14.9737432,26.2285 L14.9737432,25.8192974 C15.0611494,25.8088215 15.202815,25.7860433 15.3986865,25.7510701 C15.5980499,25.7126049 15.7606672,25.6479233 15.8865923,25.5569715 C16.0264851,25.4590357 16.1209289,25.2946456 16.1698699,25.0638009 C16.2188646,24.8294643 16.2433619,24.4972457 16.2433619,24.0670377 L16.2433619,20.3788418 C16.2433619,20.1550348 16.2153726,19.9696392 16.159394,19.8227625 C16.1034154,19.6723401 16.0195012,19.5534527 15.9075977,19.4659928 C15.7676511,19.3575812 15.6242664,19.2876348 15.4773896,19.2561535 C15.3304592,19.2246723 15.1818096,19.2036669 15.031441,19.193191 L15.031441,18.7839884 L18.4572572,18.7839884 L20.2934848,23.6997922 L21.8411701,19.7073133 C21.893603,19.5604366 21.9443169,19.3855705 21.9933116,19.1827152 C22.0422526,18.9798598 22.068469,18.8469509 22.0720147,18.7839884 L25.3719059,18.7839884 L25.3719059,19.193191 C25.2600024,19.2001749 25.1428341,19.2141964 25.020401,19.2351481 C24.8980217,19.2561535 24.7808534,19.2841429 24.6688961,19.3191161 C24.5324953,19.3645651 24.4415972,19.4362844 24.3960944,19.5342201 C24.3541373,19.6321558 24.3331319,19.7405674 24.3331319,19.8594548 L24.3331319,25.1320282 C24.3331319,25.2579532 24.3541373,25.364592 24.3960944,25.4520518 C24.4415972,25.5360198 24.5324953,25.6094581 24.6688961,25.6724207 C24.7388963,25.7039019 24.8525189,25.7336103 25.0099252,25.7615996 C25.1708234,25.789589 25.2949756,25.8088215 25.3824355,25.8192974 L25.3824355,26.2285 Z" id="Path" fill="#FFFFFF"></path>
        </g>
    </g>
</svg>