<svg xmlns="http://www.w3.org/2000/svg" viewBox="0 0 64 64"><g data-name="Approved Sign Insurance"><path d="M59 20H47a1 1 0 0 1-1-1V17a7 7 0 0 1 7-7 7 7 0 0 1 7 7v2A1 1 0 0 1 59 20zM48 18H58V17a5 5 0 0 0-10 0zM41 54H11a7 7 0 0 1-7-7V45a1 1 0 0 1 1-1H35a1 1 0 0 1 1 1v2a5 5 0 0 0 5 5 1 1 0 0 1 0 2zM6 46v1a5 5 0 0 0 5 5H36.11A7 7 0 0 1 34 47V46z"/><path d="M41,54a7,7,0,0,1-7-7V46H17a1,1,0,0,1-1-1V17a7,7,0,0,1,7-7H53a1,1,0,0,1,0,2,5,5,0,0,0-5,5V30.85a1,1,0,0,1-.73,1L42,33.31v7.83A11.24,11.24,0,0,0,46.28,50a.93.93,0,0,1,.37.67,1,1,0,0,1-.21.74,6.28,6.28,0,0,1-.49.54A6.89,6.89,0,0,1,41,54ZM18,44H35a1,1,0,0,1,1,1v2a5,5,0,0,0,8.21,3.84A13.21,13.21,0,0,1,40,41.14V32.56a1,1,0,0,1,.73-1L46,30.1V17a6.89,6.89,0,0,1,2.06-4.95l0-.05H23a5,5,0,0,0-5,5Z"/><path d="M41 21H23a1 1 0 0 1 0-2H41a1 1 0 0 1 0 2zM41 27H23a1 1 0 0 1 0-2H41a1 1 0 0 1 0 2zM37 33H23a1 1 0 0 1 0-2H37a1 1 0 0 1 0 2zM37 39H23a1 1 0 0 1 0-2H37a1 1 0 0 1 0 2zM50 54a.84.84 0 0 1-.27 0A13.38 13.38 0 0 1 40 41.14V32.56a1 1 0 0 1 .73-1l9-2.56a1 1 0 0 1 .54 0l9 2.56a1 1 0 0 1 .73 1v8.58A13.39 13.39 0 0 1 50.27 54 .84.84 0 0 1 50 54zM42 33.31v7.83A11.24 11.24 0 0 0 46.28 50 11.39 11.39 0 0 0 50 52a11.4 11.4 0 0 0 8-10.82V33.32L50 31z"/><path d="M49,45a1,1,0,0,1-.71-.29l-2.5-2.5a1,1,0,0,1,1.42-1.42L49,42.59l4.29-4.3a1,1,0,0,1,1.42,1.42l-5,5A1,1,0,0,1,49,45Z"/></g></svg>