<svg xmlns="http://www.w3.org/2000/svg" data-name="Layer 1" viewBox="0 0 32 32"><path d="M15.5,22H5.5a.5.5,0,0,0,0,1h10a.5.5,0,0,0,0-1Zm9.768,1.732-2.475,2.475-1.061-1.061a.5.5,0,0,0-.707.707l1.414,1.414a.5.5,0,0,0,.707,0l2.828-2.828a.5.5,0,0,0-.707-.707ZM25,19.182V8.5a.484.484,0,0,0-.013-.064.456.456,0,0,0-.012-.063.492.492,0,0,0-.121-.227l-8-8a.492.492,0,0,0-.228-.122.465.465,0,0,0-.057-.011A.487.487,0,0,0,16.5,0H4.5A2.5,2.5,0,0,0,2,2.5v27A2.5,2.5,0,0,0,4.5,32H24.417a.492.492,0,0,0,.316-.121A6.494,6.494,0,0,0,25,19.182ZM17,1.707,23.293,8H18.5A1.5,1.5,0,0,1,17,6.5ZM4.5,31A1.5,1.5,0,0,1,3,29.5V2.5A1.5,1.5,0,0,1,4.5,1H16V6.5A2.5,2.5,0,0,0,18.5,9H24V19.025c-.166-.013-.331-.025-.5-.025a6.494,6.494,0,0,0-3.448,12Zm19,0A5.5,5.5,0,1,1,29,25.5,5.507,5.507,0,0,1,23.5,31ZM5,16.5a.5.5,0,0,0,.5.5h16a.5.5,0,0,0,0-1H5.5A.5.5,0,0,0,5,16.5ZM17.5,19H5.5a.5.5,0,0,0,0,1h12a.5.5,0,0,0,0-1ZM9.5,9A1.5,1.5,0,1,0,8,7.5,1.5,1.5,0,0,0,9.5,9Zm0-2a.5.5,0,1,1-.5.5A.5.5,0,0,1,9.5,7Zm-4,19h9a.5.5,0,0,0,0-1h-9a.5.5,0,0,0,0,1Zm10,2H5.5a.5.5,0,0,0,0,1h10a.5.5,0,0,0,0-1ZM5.637,9.1a1.906,1.906,0,0,1,.067.547,1.78,1.78,0,0,0,.388,1.262,1.783,1.783,0,0,0,1.262.388l.157.009a.471.471,0,0,0-.01.05v3.2a.5.5,0,0,0,.777.416L9.5,14.15l1.223.815A.5.5,0,0,0,11,15.05a.493.493,0,0,0,.236-.06.5.5,0,0,0,.264-.44V11.3l.146-.008a1.784,1.784,0,0,0,1.262-.388A1.783,1.783,0,0,0,13.3,9.646a1.889,1.889,0,0,1,.067-.547,1.835,1.835,0,0,1,.324-.407A1.8,1.8,0,0,0,14.32,7.5a1.8,1.8,0,0,0-.633-1.192,1.835,1.835,0,0,1-.324-.407,1.906,1.906,0,0,1-.067-.547,1.78,1.78,0,0,0-.388-1.262A1.783,1.783,0,0,0,11.646,3.7a1.879,1.879,0,0,1-.546-.066,1.823,1.823,0,0,1-.407-.324A1.8,1.8,0,0,0,9.5,2.68a1.8,1.8,0,0,0-1.194.634,1.844,1.844,0,0,1-.406.324,1.891,1.891,0,0,1-.547.066,1.784,1.784,0,0,0-1.262.388A1.783,1.783,0,0,0,5.7,5.354a1.889,1.889,0,0,1-.067.547,1.835,1.835,0,0,1-.324.407A1.8,1.8,0,0,0,4.68,7.5a1.8,1.8,0,0,0,.633,1.192A1.835,1.835,0,0,1,5.637,9.1ZM10.5,13.615l-.723-.481a.5.5,0,0,0-.555,0l-.723.481V11.862a1.522,1.522,0,0,0,1,.458,1.522,1.522,0,0,0,1-.458ZM6.043,6.991a2.458,2.458,0,0,0,.518-.708A2.588,2.588,0,0,0,6.7,5.392,1.334,1.334,0,0,1,6.8,4.8a1.344,1.344,0,0,1,.593-.1,2.574,2.574,0,0,0,.891-.142,2.439,2.439,0,0,0,.707-.519c.173-.162.388-.363.51-.363s.337.2.51.363a2.431,2.431,0,0,0,.708.519,2.566,2.566,0,0,0,.891.142,1.343,1.343,0,0,1,.593.1,1.336,1.336,0,0,1,.1.593,2.576,2.576,0,0,0,.142.892,2.458,2.458,0,0,0,.518.708c.162.172.363.387.363.509s-.2.337-.363.509a2.458,2.458,0,0,0-.518.708,2.588,2.588,0,0,0-.143.892,1.334,1.334,0,0,1-.1.593,1.344,1.344,0,0,1-.593.1,2.574,2.574,0,0,0-.891.142,2.439,2.439,0,0,0-.707.519c-.173.162-.388.363-.51.363s-.337-.2-.51-.363a2.431,2.431,0,0,0-.708-.519,2.566,2.566,0,0,0-.891-.142,1.343,1.343,0,0,1-.593-.1,1.336,1.336,0,0,1-.1-.593,2.576,2.576,0,0,0-.142-.892,2.458,2.458,0,0,0-.518-.708c-.162-.172-.363-.387-.363-.509S5.881,7.163,6.043,6.991Z"/></svg>